ffmpeg started on 2025-06-19 at 11:51:31
Report written to "D:\Convert\FFMetrics\reports\psnr_report-6.txt"
Log level: 32
Command line:
ffmpeg -hide_banner -nostdin -i "G:\\\xc0\xed\xe8\xec\xe5\\[\xd2\xee\xef-4]\\Fate\\\xc0\xef\xee\xea\xf0\xe8\xf4\\Fate_Apocrypha_[08]_[AniLibria_TV]_[HDTVRip_720p]_HEVC.mkv" -i "G:\\\xc0\xed\xe8\xec\xe5\\[\xd2\xee\xef-4]\\Fate\\\xc0\xef\xee\xea\xf0\xe8\xf4\\Fate_Apocrypha_[08]_[AniLibria_TV]_[HDTVRip_720p].mkv" -lavfi "[0:v]settb=AVTB,setpts=PTS-STARTPTS,format=pix_fmts=yuv420p10,fps=24000/1001,scale=1280:720:flags=bicubic[main];[1:v]settb=AVTB,setpts=PTS-STARTPTS,format=pix_fmts=yuv420p,fps=24000/1001,scale=1280:720:flags=bicubic[ref];[main][ref]psnr=eof_action=endall:stats_file='D\\:/Convert/FFMetrics/logs/psnr_logfile-6.txt'" -f null -
Input #0, matroska,webm, from 'G:\Аниме\[Топ-4]\Fate\Апокриф\Fate_Apocrypha_[08]_[AniLibria_TV]_[HDTVRip_720p]_HEVC.mkv':
  Metadata:
    ENCODER         : Lavf61.7.100
  Duration: 00:24:00.17, start: -0.021000, bitrate: 731 kb/s
  Stream #0:0(jpn): Video: hevc (Main 10), yuv420p10le(tv, bt709, progressive), 1280x720 [SAR 1:1 DAR 16:9], 23.81 fps, 23.81 tbr, 1k tbn (default)
      Metadata:
        ENCODER         : Lavc61.19.100 libx265
        BPS             : 532289
        DURATION        : 00:24:00.096000000
        NUMBER_OF_FRAMES: 34526
        NUMBER_OF_BYTES : 95818559
        _STATISTICS_WRITING_APP: mkvpropedit v66.0.0 ('Josie') 64-bit
        _STATISTICS_WRITING_DATE_UTC: 2025-06-16 15:51:12
        _STATISTICS_TAGS: BPS DURATION NUMBER_OF_FRAMES NUMBER_OF_BYTES
  Stream #0:1(rus): Audio: aac (LC), 48000 Hz, stereo, fltp (default)
      Metadata:
        title           : Ados Amikiri Anzen Hekomi Silv
        ENCODER         : Lavc61.19.100 aac
        BPS             : 194254
        DURATION        : 00:24:00.149000000
        NUMBER_OF_FRAMES: 67508
        NUMBER_OF_BYTES : 34969358
        _STATISTICS_WRITING_APP: mkvpropedit v66.0.0 ('Josie') 64-bit
        _STATISTICS_WRITING_DATE_UTC: 2025-06-16 15:51:12
        _STATISTICS_TAGS: BPS DURATION NUMBER_OF_FRAMES NUMBER_OF_BYTES
  Stream #0:2(rus): Subtitle: ass (ssa) (default) (forced)
      Metadata:
        title           : Надписи
        BPS             : 149
        DURATION        : 00:22:24.550000000
        NUMBER_OF_FRAMES: 188
        NUMBER_OF_BYTES : 25158
        _STATISTICS_WRITING_APP: mkvpropedit v66.0.0 ('Josie') 64-bit
        _STATISTICS_WRITING_DATE_UTC: 2025-06-16 15:51:12
        _STATISTICS_TAGS: BPS DURATION NUMBER_OF_FRAMES NUMBER_OF_BYTES
  Stream #0:3(rus): Subtitle: ass (ssa)
      Metadata:
        title           : Полные
        BPS             : 250
        DURATION        : 00:23:40.070000000
        NUMBER_OF_FRAMES: 365
        NUMBER_OF_BYTES : 44528
        _STATISTICS_WRITING_APP: mkvpropedit v66.0.0 ('Josie') 64-bit
        _STATISTICS_WRITING_DATE_UTC: 2025-06-16 15:51:12
        _STATISTICS_TAGS: BPS DURATION NUMBER_OF_FRAMES NUMBER_OF_BYTES
Input #1, matroska,webm, from 'G:\Аниме\[Топ-4]\Fate\Апокриф\Fate_Apocrypha_[08]_[AniLibria_TV]_[HDTVRip_720p].mkv':
  Metadata:
    encoder         : libebml v1.3.0 + libmatroska v1.4.1
    creation_time   : 2017-08-21T20:16:46.000000Z
  Duration: 00:24:00.15, start: 0.000000, bitrate: 2437 kb/s
  Stream #1:0: Video: h264 (Main), yuv420p(tv, bt709, progressive), 1280x720, SAR 1:1 DAR 16:9, 23.81 fps, 23.81 tbr, 1k tbn (default)
      Metadata:
        BPS             : 2020632
        BPS-eng         : 2020632
        DURATION        : 00:24:00.085000000
        DURATION-eng    : 00:24:00.085000000
        NUMBER_OF_FRAMES: 34526
        NUMBER_OF_FRAMES-eng: 34526
        NUMBER_OF_BYTES : 363735276
        NUMBER_OF_BYTES-eng: 363735276
        _STATISTICS_WRITING_APP: mkvmerge v7.3.0 ('Nouages') 64bit built on Oct 22 2014 18:53:34
        _STATISTICS_WRITING_APP-eng: mkvmerge v7.3.0 ('Nouages') 64bit built on Oct 22 2014 18:53:34
        _STATISTICS_WRITING_DATE_UTC: 2017-08-21 20:16:46
        _STATISTICS_WRITING_DATE_UTC-eng: 2017-08-21 20:16:46
        _STATISTICS_TAGS: BPS DURATION NUMBER_OF_FRAMES NUMBER_OF_BYTES
        _STATISTICS_TAGS-eng: BPS DURATION NUMBER_OF_FRAMES NUMBER_OF_BYTES
  Stream #1:1(rus): Audio: aac (LC), 48000 Hz, stereo, fltp (default)
      Metadata:
        title           : Ados Amikiri Anzen Hekomi Silv
        BPS             : 192093
        BPS-eng         : 192093
        DURATION        : 00:24:00.149000000
        DURATION-eng    : 00:24:00.149000000
        NUMBER_OF_FRAMES: 67507
        NUMBER_OF_FRAMES-eng: 67507
        NUMBER_OF_BYTES : 34580322
        NUMBER_OF_BYTES-eng: 34580322
        _STATISTICS_WRITING_APP: mkvmerge v7.3.0 ('Nouages') 64bit built on Oct 22 2014 18:53:34
        _STATISTICS_WRITING_APP-eng: mkvmerge v7.3.0 ('Nouages') 64bit built on Oct 22 2014 18:53:34
        _STATISTICS_WRITING_DATE_UTC: 2017-08-21 20:16:46
        _STATISTICS_WRITING_DATE_UTC-eng: 2017-08-21 20:16:46
        _STATISTICS_TAGS: BPS DURATION NUMBER_OF_FRAMES NUMBER_OF_BYTES
        _STATISTICS_TAGS-eng: BPS DURATION NUMBER_OF_FRAMES NUMBER_OF_BYTES
  Stream #1:2(jpn): Audio: aac (LC), 48000 Hz, stereo, fltp
      Metadata:
        title           : Оригинал
        BPS             : 219503
        BPS-eng         : 219503
        DURATION        : 00:24:00.127000000
        DURATION-eng    : 00:24:00.127000000
        NUMBER_OF_FRAMES: 67506
        NUMBER_OF_FRAMES-eng: 67506
        NUMBER_OF_BYTES : 39514152
        NUMBER_OF_BYTES-eng: 39514152
        _STATISTICS_WRITING_APP: mkvmerge v7.3.0 ('Nouages') 64bit built on Oct 22 2014 18:53:34
        _STATISTICS_WRITING_APP-eng: mkvmerge v7.3.0 ('Nouages') 64bit built on Oct 22 2014 18:53:34
        _STATISTICS_WRITING_DATE_UTC: 2017-08-21 20:16:46
        _STATISTICS_WRITING_DATE_UTC-eng: 2017-08-21 20:16:46
        _STATISTICS_TAGS: BPS DURATION NUMBER_OF_FRAMES NUMBER_OF_BYTES
        _STATISTICS_TAGS-eng: BPS DURATION NUMBER_OF_FRAMES NUMBER_OF_BYTES
  Stream #1:3(rus): Subtitle: ass (ssa) (default) (forced)
      Metadata:
        title           : Надписи
        BPS             : 149
        BPS-eng         : 149
        DURATION        : 00:22:24.550000000
        DURATION-eng    : 00:22:24.550000000
        NUMBER_OF_FRAMES: 188
        NUMBER_OF_FRAMES-eng: 188
        NUMBER_OF_BYTES : 25158
        NUMBER_OF_BYTES-eng: 25158
        _STATISTICS_WRITING_APP: mkvmerge v7.3.0 ('Nouages') 64bit built on Oct 22 2014 18:53:34
        _STATISTICS_WRITING_APP-eng: mkvmerge v7.3.0 ('Nouages') 64bit built on Oct 22 2014 18:53:34
        _STATISTICS_WRITING_DATE_UTC: 2017-08-21 20:16:46
        _STATISTICS_WRITING_DATE_UTC-eng: 2017-08-21 20:16:46
        _STATISTICS_TAGS: BPS DURATION NUMBER_OF_FRAMES NUMBER_OF_BYTES
        _STATISTICS_TAGS-eng: BPS DURATION NUMBER_OF_FRAMES NUMBER_OF_BYTES
  Stream #1:4(rus): Subtitle: ass (ssa)
      Metadata:
        title           : Полные
        BPS             : 250
        BPS-eng         : 250
        DURATION        : 00:23:40.070000000
        DURATION-eng    : 00:23:40.070000000
        NUMBER_OF_FRAMES: 365
        NUMBER_OF_FRAMES-eng: 365
        NUMBER_OF_BYTES : 44528
        NUMBER_OF_BYTES-eng: 44528
        _STATISTICS_WRITING_APP: mkvmerge v7.3.0 ('Nouages') 64bit built on Oct 22 2014 18:53:34
        _STATISTICS_WRITING_APP-eng: mkvmerge v7.3.0 ('Nouages') 64bit built on Oct 22 2014 18:53:34
        _STATISTICS_WRITING_DATE_UTC: 2017-08-21 20:16:46
        _STATISTICS_WRITING_DATE_UTC-eng: 2017-08-21 20:16:46
        _STATISTICS_TAGS: BPS DURATION NUMBER_OF_FRAMES NUMBER_OF_BYTES
        _STATISTICS_TAGS-eng: BPS DURATION NUMBER_OF_FRAMES NUMBER_OF_BYTES
  Stream #1:5: Attachment: ttf
      Metadata:
        filename        : 9511(1).ttf
        mimetype        : application/x-truetype-font
  Stream #1:6: Attachment: ttf
      Metadata:
        filename        : ALBR.ttf
        mimetype        : application/x-truetype-font
Stream mapping:
  Stream #0:0 (hevc) -> settb:default
  Stream #1:0 (h264) -> settb:default
  psnr:default -> Stream #0:0 (wrapped_avframe)
  Stream #0:1 -> #0:1 (aac (native) -> pcm_s16le (native))
Output #0, null, to 'pipe:':
  Metadata:
    encoder         : Lavf61.7.100
  Stream #0:0: Video: wrapped_avframe, yuv420p10le(tv, bt709, progressive), 1280x720 [SAR 1:1 DAR 16:9], q=2-31, 200 kb/s, 23.98 fps, 23.98 tbn
      Metadata:
        encoder         : Lavc61.19.100 wrapped_avframe
  Stream #0:1(rus): Audio: pcm_s16le, 48000 Hz, stereo, s16, 1536 kb/s (default)
      Metadata:
        title           : Ados Amikiri Anzen Hekomi Silv
        _STATISTICS_TAGS: BPS DURATION NUMBER_OF_FRAMES NUMBER_OF_BYTES
        BPS             : 194254
        DURATION        : 00:24:00.149000000
        NUMBER_OF_FRAMES: 67508
        NUMBER_OF_BYTES : 34969358
        _STATISTICS_WRITING_APP: mkvpropedit v66.0.0 ('Josie') 64-bit
        _STATISTICS_WRITING_DATE_UTC: 2025-06-16 15:51:12
        encoder         : Lavc61.19.100 pcm_s16le
frame=  552 fps=0.0 q=-0.0 size=N/A time=00:00:23.02 bitrate=N/A speed=45.2x    frame= 1128 fps=1089 q=-0.0 size=N/A time=00:00:47.04 bitrate=N/A speed=45.4x    frame= 1719 fps=1111 q=-0.0 size=N/A time=00:01:11.69 bitrate=N/A speed=46.3x    frame= 2176 fps=1057 q=-0.0 size=N/A time=00:01:30.75 bitrate=N/A speed=44.1x    frame= 2625 fps=1016 q=-0.0 size=N/A time=00:01:49.48 bitrate=N/A speed=42.4x    frame= 3131 fps=1013 q=-0.0 size=N/A time=00:02:10.58 bitrate=N/A speed=42.2x    frame= 3529 fps=979 q=-0.0 size=N/A time=00:02:27.18 bitrate=N/A speed=40.8x    frame= 3876 fps=939 q=-0.0 size=N/A time=00:02:41.66 bitrate=N/A speed=39.2x    frame= 4341 fps=937 q=-0.0 size=N/A time=00:03:01.05 bitrate=N/A speed=39.1x    frame= 4769 fps=924 q=-0.0 size=N/A time=00:03:18.90 bitrate=N/A speed=38.5x    frame= 5123 fps=903 q=-0.0 size=N/A time=00:03:33.71 bitrate=N/A speed=37.7x    frame= 5496 fps=888 q=-0.0 size=N/A time=00:03:49.27 bitrate=N/A speed=  37x    frame= 5908 fps=882 q=-0.0 size=N/A time=00:04:06.41 bitrate=N/A speed=36.8x    frame= 6274 fps=869 q=-0.0 size=N/A time=00:04:21.67 bitrate=N/A speed=36.2x    frame= 6799 fps=880 q=-0.0 size=N/A time=00:04:43.57 bitrate=N/A speed=36.7x    frame= 7343 fps=890 q=-0.0 size=N/A time=00:05:06.26 bitrate=N/A speed=37.1x    frame= 7899 fps=901 q=-0.0 size=N/A time=00:05:29.45 bitrate=N/A speed=37.6x    frame= 8388 fps=904 q=-0.0 size=N/A time=00:05:49.84 bitrate=N/A speed=37.7x    frame= 8996 fps=918 q=-0.0 size=N/A time=00:06:15.20 bitrate=N/A speed=38.3x    frame= 9468 fps=918 q=-0.0 size=N/A time=00:06:34.89 bitrate=N/A speed=38.3x    frame= 9932 fps=918 q=-0.0 size=N/A time=00:06:54.24 bitrate=N/A speed=38.3x    frame=10356 fps=913 q=-0.0 size=N/A time=00:07:11.93 bitrate=N/A speed=38.1x    frame=10781 fps=909 q=-0.0 size=N/A time=00:07:29.65 bitrate=N/A speed=37.9x    frame=11205 fps=906 q=-0.0 size=N/A time=00:07:47.34 bitrate=N/A speed=37.8x    frame=11669 fps=905 q=-0.0 size=N/A time=00:08:06.69 bitrate=N/A speed=37.7x    frame=12201 fps=910 q=-0.0 size=N/A time=00:08:28.88 bitrate=N/A speed=  38x    frame=12602 fps=906 q=-0.0 size=N/A time=00:08:45.60 bitrate=N/A speed=37.8x    frame=12991 fps=900 q=-0.0 size=N/A time=00:09:01.83 bitrate=N/A speed=37.5x    frame=13498 fps=903 q=-0.0 size=N/A time=00:09:22.97 bitrate=N/A speed=37.7x    frame=13999 fps=905 q=-0.0 size=N/A time=00:09:43.87 bitrate=N/A speed=37.8x    frame=14559 fps=911 q=-0.0 size=N/A time=00:10:07.23 bitrate=N/A speed=  38x    frame=15009 fps=910 q=-0.0 size=N/A time=00:10:26.00 bitrate=N/A speed=37.9x    frame=15447 fps=908 q=-0.0 size=N/A time=00:10:44.26 bitrate=N/A speed=37.9x    frame=15932 fps=909 q=-0.0 size=N/A time=00:11:04.49 bitrate=N/A speed=37.9x    frame=16276 fps=902 q=-0.0 size=N/A time=00:11:18.84 bitrate=N/A speed=37.6x    frame=16647 fps=897 q=-0.0 size=N/A time=00:11:34.31 bitrate=N/A speed=37.4x    frame=17234 fps=903 q=-0.0 size=N/A time=00:11:58.80 bitrate=N/A speed=37.7x    frame=17727 fps=905 q=-0.0 size=N/A time=00:12:19.36 bitrate=N/A speed=37.7x    frame=18317 fps=911 q=-0.0 size=N/A time=00:12:43.97 bitrate=N/A speed=  38x    frame=18950 fps=919 q=-0.0 size=N/A time=00:13:10.37 bitrate=N/A speed=38.3x    frame=19579 fps=926 q=-0.0 size=N/A time=00:13:36.60 bitrate=N/A speed=38.6x    frame=20164 fps=931 q=-0.0 size=N/A time=00:14:01.00 bitrate=N/A speed=38.8x    frame=20764 fps=936 q=-0.0 size=N/A time=00:14:26.03 bitrate=N/A speed=39.1x    frame=21372 fps=942 q=-0.0 size=N/A time=00:14:51.39 bitrate=N/A speed=39.3x    frame=22033 fps=949 q=-0.0 size=N/A time=00:15:18.95 bitrate=N/A speed=39.6x    frame=22501 fps=949 q=-0.0 size=N/A time=00:15:38.47 bitrate=N/A speed=39.6x    frame=22935 fps=947 q=-0.0 size=N/A time=00:15:56.58 bitrate=N/A speed=39.5x    frame=23473 fps=949 q=-0.0 size=N/A time=00:16:19.01 bitrate=N/A speed=39.6x    frame=24146 fps=956 q=-0.0 size=N/A time=00:16:47.08 bitrate=N/A speed=39.9x    frame=24705 fps=958 q=-0.0 size=N/A time=00:17:10.44 bitrate=N/A speed=  40x    frame=25222 fps=959 q=-0.0 size=N/A time=00:17:31.96 bitrate=N/A speed=  40x    frame=25643 fps=956 q=-0.0 size=N/A time=00:17:49.52 bitrate=N/A speed=39.9x    frame=26175 fps=958 q=-0.0 size=N/A time=00:18:11.71 bitrate=N/A speed=  40x    frame=26691 fps=959 q=-0.0 size=N/A time=00:18:33.23 bitrate=N/A speed=  40x    frame=27103 fps=956 q=-0.0 size=N/A time=00:18:50.42 bitrate=N/A speed=39.9x    frame=27651 fps=957 q=-0.0 size=N/A time=00:19:13.27 bitrate=N/A speed=39.9x    frame=28161 fps=958 q=-0.0 size=N/A time=00:19:34.54 bitrate=N/A speed=  40x    frame=28761 fps=962 q=-0.0 size=N/A time=00:19:59.57 bitrate=N/A speed=40.1x    frame=29390 fps=966 q=-0.0 size=N/A time=00:20:25.80 bitrate=N/A speed=40.3x    frame=29842 fps=965 q=-0.0 size=N/A time=00:20:44.66 bitrate=N/A speed=40.2x    frame=30429 fps=968 q=-0.0 size=N/A time=00:21:09.14 bitrate=N/A speed=40.4x    frame=31043 fps=971 q=-0.0 size=N/A time=00:21:34.75 bitrate=N/A speed=40.5x    frame=31597 fps=973 q=-0.0 size=N/A time=00:21:57.85 bitrate=N/A speed=40.6x    frame=32166 fps=975 q=-0.0 size=N/A time=00:22:21.59 bitrate=N/A speed=40.7x    frame=32514 fps=970 q=-0.0 size=N/A time=00:22:36.10 bitrate=N/A speed=40.5x    frame=32897 fps=967 q=-0.0 size=N/A time=00:22:52.07 bitrate=N/A speed=40.3x    frame=33336 fps=965 q=-0.0 size=N/A time=00:23:10.38 bitrate=N/A speed=40.2x    frame=33667 fps=960 q=-0.0 size=N/A time=00:23:24.19 bitrate=N/A speed=40.1x    frame=34009 fps=956 q=-0.0 size=N/A time=00:23:38.45 bitrate=N/A speed=39.9x    frame=34403 fps=953 q=-0.0 size=N/A time=00:23:54.89 bitrate=N/A speed=39.8x    [Parsed_psnr_10 @ 000001afbcefcf40] PSNR y:34.464853 u:45.383656 v:45.326724 average:36.052373 min:4.552245 max:61.081344
[out#0/null @ 000001afb0e01e00] video:14836KiB audio:270032KiB subtitle:0KiB other streams:0KiB global headers:0KiB muxing overhead: unknown
frame=34528 fps=955 q=-0.0 Lsize=N/A time=00:24:00.10 bitrate=N/A speed=39.8x    
